<svg width="24" height="24" viewBox="0 0 24 24" fill="none" xmlns="http://www.w3.org/2000/svg">
<path fill-rule="evenodd" clip-rule="evenodd" d="M3 16C3 12.134 6.13401 9 10 9H14C17.866 9 21 12.134 21 16V19H3V16ZM10 11C7.23858 11 5 13.2386 5 16V17H19V16C19 13.2386 16.7614 11 14 11H10Z" fill="#1F1F22"/>
<path fill-rule="evenodd" clip-rule="evenodd" d="M12 5C10.8954 5 10 5.89543 10 7V13H8V7C8 4.79086 9.79086 3 12 3C14.2091 3 16 4.79086 16 7V13H14V7C14 5.89543 13.1046 5 12 5Z" fill="#1F1F22"/>
</svg>
