<svg width="40" height="40" viewBox="0 0 40 40" fill="none" xmlns="http://www.w3.org/2000/svg">
<path d="M0.360992 37.8542C-0.127163 38.3424 -0.118755 39.1423 0.3694 39.6304C0.857555 40.1186 1.65742 40.127 2.14557 39.6388L19.9997 21.7847L37.854 39.6391C38.3421 40.1272 39.142 40.1188 39.6302 39.6307C40.1183 39.1425 40.1267 38.3426 39.6386 37.8545L21.7842 20.0002L39.6386 2.14579C40.1268 1.65763 40.1184 0.857771 39.6302 0.369616C39.142 -0.11854 38.3422 -0.126949 37.854 0.361207L19.9997 18.2156L2.14555 0.361451C1.65739 -0.126705 0.857527 -0.118297 0.369372 0.369858C-0.118784 0.858014 -0.127193 1.65788 0.360963 2.14603L18.2151 20.0002L0.360992 37.8542Z" fill="white"/>
</svg>
