<svg width="18" height="20" viewBox="0 0 18 20" fill="none" xmlns="http://www.w3.org/2000/svg">
<path d="M7 0C6.44772 0 6 0.447715 6 1C6 1.55228 6.44772 2 7 2H11C11.5523 2 12 1.55228 12 1C12 0.447715 11.5523 0 11 0H7Z" fill="#B2B8BF"/>
<path d="M7 8C7.55228 8 8 8.44771 8 9V15C8 15.5523 7.55228 16 7 16C6.44772 16 6 15.5523 6 15V9C6 8.44771 6.44772 8 7 8Z" fill="#B2B8BF"/>
<path d="M12 9C12 8.44771 11.5523 8 11 8C10.4477 8 10 8.44771 10 9V15C10 15.5523 10.4477 16 11 16C11.5523 16 12 15.5523 12 15V9Z" fill="#B2B8BF"/>
<path fill-rule="evenodd" clip-rule="evenodd" d="M0 5C0 4.44772 0.447715 4 1 4H17C17.5523 4 18 4.44772 18 5C18 5.55228 17.5523 6 17 6H16V17C16 18.6569 14.6569 20 13 20H5C3.34315 20 2 18.6569 2 17V6H1C0.447715 6 0 5.55228 0 5ZM4 6H14V17C14 17.5523 13.5523 18 13 18H5C4.44772 18 4 17.5523 4 17V6Z" fill="#B2B8BF"/>
</svg>
