<svg width="24" height="24" viewBox="0 0 24 24" fill="none" xmlns="http://www.w3.org/2000/svg">
<path d="M10 2C9.44772 2 9 2.44772 9 3C9 3.55228 9.44772 4 10 4H14C14.5523 4 15 3.55228 15 3C15 2.44772 14.5523 2 14 2H10Z" fill="#1F1F22"/>
<path d="M10 10C10.5523 10 11 10.4477 11 11V17C11 17.5523 10.5523 18 10 18C9.44772 18 9 17.5523 9 17V11C9 10.4477 9.44772 10 10 10Z" fill="#1F1F22"/>
<path d="M15 11C15 10.4477 14.5523 10 14 10C13.4477 10 13 10.4477 13 11V17C13 17.5523 13.4477 18 14 18C14.5523 18 15 17.5523 15 17V11Z" fill="#1F1F22"/>
<path fill-rule="evenodd" clip-rule="evenodd" d="M3 7C3 6.44772 3.44772 6 4 6H20C20.5523 6 21 6.44772 21 7C21 7.55228 20.5523 8 20 8H19V19C19 20.6569 17.6569 22 16 22H8C6.34315 22 5 20.6569 5 19V8H4C3.44772 8 3 7.55228 3 7ZM7 8H17V19C17 19.5523 16.5523 20 16 20H8C7.44772 20 7 19.5523 7 19V8Z" fill="#1F1F22"/>
</svg>
