<svg width="72" height="64" viewBox="0 0 72 64" fill="none" xmlns="http://www.w3.org/2000/svg">
<g clip-path="url(#clip0)">
<path fill-rule="evenodd" clip-rule="evenodd" d="M68.8751 48H65.8001C65.3131 51.386 62.4051 53.999 58.8921 53.999C55.3801 53.999 52.4721 51.386 51.9841 48H49.9101C49.1501 48 48.4811 47.69 47.9711 47.211C47.4291 47.694 46.7261 48 45.9701 48H33.8561C33.3691 51.386 30.4611 53.999 26.9481 53.999C23.4361 53.999 20.5281 51.386 20.0401 48H14.9151C13.2941 48 11.9751 46.671 11.9751 45.039V42C11.9751 41.447 12.4211 41 12.9731 41C13.5251 41 13.9711 41.447 13.9711 42V45.039C13.9711 45.568 14.3941 46 14.9151 46H20.0401C20.5271 42.613 23.4351 39.999 26.9481 39.999C30.4621 39.999 33.3701 42.613 33.8571 46H45.9701C46.4901 46 47.0001 45.529 47.0001 44.999V32V16.401C46.9461 16.278 46.9131 16.143 46.9131 15.999C46.9131 15.856 46.9461 15.721 47.0001 15.598V12.999C47.0001 12.471 46.4901 12 45.9701 12H14.9151C14.3941 12 13.9711 12.43 13.9711 12.958V15.999C13.9711 16.552 13.5251 17 12.9731 17C12.4211 17 11.9751 16.552 11.9751 15.999V12.958C11.9751 11.327 13.2941 10 14.9151 10H45.9701C47.5911 10 49.0001 11.368 49.0001 12.999V14.999H64.8821C65.2991 14.999 65.6711 15.259 65.8181 15.65L71.6581 31.368C71.8611 31.519 72.0001 31.732 72.0001 32V44.999C72.0001 46.578 70.5261 48 68.8751 48ZM26.9481 42C24.1961 42 21.9571 44.243 21.9571 47C21.9571 49.757 24.1961 51.999 26.9481 51.999C29.7001 51.999 31.9401 49.757 31.9401 47C31.9401 44.243 29.7001 42 26.9481 42ZM58.8921 51.999C61.6441 51.999 63.8831 49.757 63.8831 47C63.8831 44.243 61.6441 42 58.8921 42C56.1401 42 53.9011 44.243 53.9011 47C53.9011 49.757 56.1401 51.999 58.8921 51.999ZM48.9621 45.355C49.0791 45.719 49.4561 46 49.9101 46H51.9841C52.4711 42.613 55.3791 39.999 58.8921 39.999C62.4051 39.999 65.3141 42.613 65.8001 46H68.8751C69.4161 46 70.0001 45.466 70.0001 44.999V33H59.8911C59.3391 33 59.0001 32.552 59.0001 32V17H49.0001V44.999C49.0001 45.121 48.9771 45.237 48.9621 45.355ZM64.1891 17H61.0001V30.999H69.3901L64.1891 17ZM21.9571 21.999C21.9571 22.552 21.5111 23 20.9591 23H8.98009C8.42809 23 7.98209 22.552 7.98209 21.999C7.98209 21.447 8.42809 21 8.98009 21H20.9591C21.5111 21 21.9571 21.447 21.9571 21.999ZM17.9641 29C17.9641 29.551 17.5181 30 16.9661 30H0.994094C0.442094 30 -0.00390625 29.551 -0.00390625 29C-0.00390625 28.447 0.442094 28 0.994094 28H16.9661C17.5181 28 17.9641 28.447 17.9641 29ZM4.98709 35H12.9731C13.5251 35 13.9711 35.448 13.9711 35.999C13.9711 36.551 13.5251 37 12.9731 37H4.98709C4.43509 37 3.98909 36.551 3.98909 35.999C3.98909 35.448 4.43509 35 4.98709 35Z" fill="#565B62"/>
</g>
<defs>
<clipPath id="clip0">
<rect width="72" height="64" fill="white"/>
</clipPath>
</defs>
</svg>
