<svg width="24" height="24" viewBox="0 0 24 24" fill="none" xmlns="http://www.w3.org/2000/svg">
<path fill-rule="evenodd" clip-rule="evenodd" d="M11 12.2388C11 11.6865 11.4477 11.2388 12 11.2388H19.9485C20.5008 11.2388 20.9485 11.6865 20.9485 12.2388C20.9485 12.7911 20.5008 13.2388 19.9485 13.2388H12C11.4477 13.2388 11 12.7911 11 12.2388Z" fill="#1F1F22"/>
<path fill-rule="evenodd" clip-rule="evenodd" d="M3.5 18C3.5 17.4477 3.94772 17 4.5 17H8.58533C9.13762 17 9.58533 17.4477 9.58533 18C9.58533 18.5523 9.13762 19 8.58533 19H4.5C3.94772 19 3.5 18.5523 3.5 18Z" fill="#1F1F22"/>
<path fill-rule="evenodd" clip-rule="evenodd" d="M3.5 5.99999C3.5 5.44771 3.94772 4.99999 4.5 4.99999H12.161C12.7132 4.99999 13.161 5.44771 13.161 5.99999C13.161 6.55228 12.7132 6.99999 12.161 6.99999H4.5C3.94772 6.99999 3.5 6.55228 3.5 5.99999Z" fill="#1F1F22"/>
<path fill-rule="evenodd" clip-rule="evenodd" d="M15.5 5.99999C15.5 5.44771 15.9477 4.99999 16.5 4.99999H20.1634C20.7157 4.99999 21.1634 5.44771 21.1634 5.99999C21.1634 6.55228 20.7157 6.99999 20.1634 6.99999H16.5C15.9477 6.99999 15.5 6.55228 15.5 5.99999Z" fill="#1F1F22"/>
<path fill-rule="evenodd" clip-rule="evenodd" d="M3.5 12.2388C3.5 11.6865 3.94772 11.2388 4.5 11.2388H7.98394C8.53622 11.2388 8.98394 11.6865 8.98394 12.2388C8.98394 12.7911 8.53622 13.2388 7.98394 13.2388H4.5C3.94772 13.2388 3.5 12.7911 3.5 12.2388Z" fill="#1F1F22"/>
<path fill-rule="evenodd" clip-rule="evenodd" d="M11.75 18C11.75 17.4477 12.1977 17 12.75 17H20.215C20.7673 17 21.215 17.4477 21.215 18C21.215 18.5523 20.7673 19 20.215 19H12.75C12.1977 19 11.75 18.5523 11.75 18Z" fill="#1F1F22"/>
<path fill-rule="evenodd" clip-rule="evenodd" d="M8.23317 8.49438C8.78546 8.49438 9.23317 8.9421 9.23317 9.49438V14.4383C9.23317 14.9906 8.78546 15.4383 8.23317 15.4383C7.68089 15.4383 7.23317 14.9906 7.23317 14.4383V9.49438C7.23317 8.9421 7.68089 8.49438 8.23317 8.49438Z" fill="#1F1F22"/>
<path fill-rule="evenodd" clip-rule="evenodd" d="M11.9832 14.4944C12.5355 14.4944 12.9832 14.9421 12.9832 15.4944V20.4383C12.9832 20.9906 12.5355 21.4383 11.9832 21.4383C11.4309 21.4383 10.9832 20.9906 10.9832 20.4383V15.4944C10.9832 14.9421 11.4309 14.4944 11.9832 14.4944Z" fill="#1F1F22"/>
<path fill-rule="evenodd" clip-rule="evenodd" d="M15.7332 2.49438C16.2855 2.49438 16.7332 2.9421 16.7332 3.49438V8.43829C16.7332 8.99058 16.2855 9.43829 15.7332 9.43829C15.1809 9.43829 14.7332 8.99058 14.7332 8.43829V3.49438C14.7332 2.9421 15.1809 2.49438 15.7332 2.49438Z" fill="#1F1F22"/>
</svg>
