<svg width="20" height="20" viewBox="0 0 20 20" fill="none" xmlns="http://www.w3.org/2000/svg">
<path fill-rule="evenodd" clip-rule="evenodd" d="M11.0076 12.3898C11.0084 12.4065 11.0088 12.4232 11.0088 12.4401V14.4401C11.0088 14.9924 10.5611 15.4401 10.0088 15.4401C9.45654 15.4401 9.00882 14.9924 9.00882 14.4401V12.4401C9.00882 12.4238 9.0092 12.4077 9.00998 12.3915C8.70813 12.3617 8.4098 12.3184 8.11563 12.2621C8.11423 12.267 8.1128 12.2717 8.11133 12.2765L7.52658 14.1891C7.36511 14.7173 6.80605 15.0144 6.27789 14.853C5.74974 14.6915 5.45248 14.1326 5.61395 13.6044L6.1987 11.6918C5.80617 11.5295 5.42533 11.3436 5.05847 11.1349L4.09344 12.7409C3.809 13.2143 3.19462 13.3676 2.72122 13.0832C2.24782 12.7987 2.09464 12.1843 2.37909 11.7109L3.40918 9.99651C3.41373 9.98893 3.41835 9.98146 3.42307 9.97405C3.17921 9.76131 2.94559 9.53665 2.72308 9.30095L1.71973 10.3371C1.33559 10.7341 0.702446 10.7448 0.305054 10.361L0.304352 10.3603C-0.092181 9.97662 -0.102595 9.34422 0.281067 8.94768L1.49103 7.69842C1.03207 6.95649 0.665999 6.14684 0.410492 5.28411C0.253659 4.75456 0.555778 4.19826 1.08533 4.04143C1.61488 3.8846 2.17132 4.18669 2.32816 4.71624C3.32571 8.08451 6.43287 10.4401 10 10.4401C13.5668 10.4401 16.6737 8.08499 17.6716 4.71721C17.8285 4.18768 18.3849 3.88551 18.9145 4.04241C19.444 4.19931 19.7461 4.7558 19.5892 5.28533C19.3336 6.14799 18.9674 6.95753 18.5083 7.69939L19.7173 8.94768C20.101 9.34422 20.0906 9.97662 19.694 10.3603L19.6933 10.361C19.2959 10.7448 18.6628 10.7341 18.2787 10.3371L17.2761 9.30193C17.0573 9.53369 16.8277 9.75472 16.5882 9.96428C16.5951 9.97489 16.6019 9.98556 16.6085 9.99651L17.6385 11.7109C17.923 12.1843 17.7698 12.7987 17.2964 13.0832C16.823 13.3676 16.2087 13.2143 15.9242 12.7409L14.9547 11.1274C14.6336 11.3106 14.3019 11.4765 13.9607 11.6237L14.5663 13.6044C14.7277 14.1326 14.4305 14.6915 13.9023 14.853C13.3742 15.0144 12.8151 14.7173 12.6537 14.1891L12.0541 12.228C11.7108 12.2998 11.3616 12.3542 11.0076 12.3898Z" fill="#1F1F22"/>
</svg>
