<svg width="18" height="16" viewBox="0 0 18 16" fill="none" xmlns="http://www.w3.org/2000/svg">
<path fill-rule="evenodd" clip-rule="evenodd" d="M0 16V13C0 9.13401 3.13401 6 7 6H11C14.866 6 18 9.13401 18 13V16H0ZM17 13C17 9.68629 14.3137 7 11 7H7C3.68629 7 1 9.68629 1 13V15H17V13Z" fill="black"/>
<path fill-rule="evenodd" clip-rule="evenodd" d="M9 1.5C7.34315 1.5 6 2.84315 6 4.5V9H5V4.5C5 2.29086 6.79086 0.5 9 0.5C11.2091 0.5 13 2.29086 13 4.5V9H12V4.5C12 2.84315 10.6569 1.5 9 1.5Z" fill="black"/>
</svg>
