<svg width="15" height="15" viewBox="0 0 15 15" fill="none" xmlns="http://www.w3.org/2000/svg">
<path fill-rule="evenodd" clip-rule="evenodd" d="M6.5 12C9.53757 12 12 9.53757 12 6.5C12 3.46243 9.53757 1 6.5 1C3.46243 1 1 3.46243 1 6.5C1 9.53757 3.46243 12 6.5 12ZM6.5 13C10.0899 13 13 10.0899 13 6.5C13 2.91015 10.0899 0 6.5 0C2.91015 0 0 2.91015 0 6.5C0 10.0899 2.91015 13 6.5 13Z" fill="#1F1F22"/>
<path d="M11.0859 10.3784L14.6215 13.914L13.9144 14.6211L10.3788 11.0855L11.0859 10.3784Z" fill="#1F1F22"/>
</svg>
