<svg width="12" height="16" viewBox="0 0 12 16" fill="none" xmlns="http://www.w3.org/2000/svg">
<path fill-rule="evenodd" clip-rule="evenodd" d="M2.63258 6.957L2.53243 6.98704C1.85681 7.18973 1.33792 7.73332 1.16684 8.41762L0.0355421 12.9428C-0.0934419 13.4588 0.136465 13.9975 0.598211 14.2614C3.63936 15.9992 7.37276 15.9992 10.4139 14.2614C10.8757 13.9975 11.1056 13.4588 10.9766 12.9428L9.84531 8.41762C9.67421 7.73332 9.15532 7.18973 8.4797 6.98704L8.37954 6.957C6.50516 6.39468 4.50697 6.39468 2.63258 6.957ZM8.19235 7.94486L8.09226 7.91485L8.09219 7.91483C6.40525 7.40874 4.60688 7.40874 2.91993 7.91483L2.91989 7.91484L2.81978 7.94486C2.81977 7.94487 2.81975 7.94487 2.81974 7.94488C2.48195 8.04624 2.22252 8.31802 2.13698 8.66016L1.00569 13.1853C1.00569 13.1853 1.00569 13.1853 1.00568 13.1853C0.985364 13.2667 1.02157 13.3516 1.09441 13.3932C3.82811 14.9553 7.18406 14.9553 9.91775 13.3932C9.99062 13.3515 10.0268 13.2667 10.0065 13.1853L8.87518 8.66019C8.87517 8.66018 8.87517 8.66017 8.87517 8.66016C8.7896 8.31799 8.53015 8.04621 8.19235 7.94486ZM5.50606 3.87596C6.30024 3.87596 6.94405 3.23215 6.94405 2.43798C6.94405 1.64381 6.30024 1 5.50606 1C4.71189 1 4.06808 1.6438 4.06808 2.43798C4.06808 3.23216 4.71189 3.87596 5.50606 3.87596ZM7.94405 2.43798C7.94405 3.78444 6.85252 4.87596 5.50606 4.87596C4.1596 4.87596 3.06808 3.78444 3.06808 2.43798C3.06808 1.09152 4.1596 0 5.50606 0C6.85252 0 7.94405 1.09152 7.94405 2.43798Z" fill="#1F1F22"/>
</svg>
