<svg width="64" height="64" viewBox="0 0 64 64" fill="none" xmlns="http://www.w3.org/2000/svg">
<path fill-rule="evenodd" clip-rule="evenodd" d="M58.2969 49.64L42.8509 57.88C42.7079 57.957 42.5479 57.997 42.3839 57.999C42.3629 57.999 42.3099 58 42.2289 58C41.0529 58 33.9469 57.937 29.4649 56.476C27.9269 55.976 26.0879 55.307 24.3079 54.661C20.8429 53.403 16.9169 51.977 15.6809 51.977C14.0589 51.977 7.42493 53.407 5.00593 53.959C4.74193 54.018 4.46993 53.972 4.24293 53.829C4.01693 53.685 3.85793 53.458 3.80093 53.197L1.10893 40.903C0.995926 40.39 1.30093 39.879 1.80693 39.731C18.5799 34.83 27.1369 36.134 27.4919 36.191C27.5459 36.201 27.5999 36.214 27.6519 36.232L42.7749 41.321C42.7899 41.326 42.7999 41.339 42.8149 41.344C42.8299 41.35 42.8469 41.348 42.8619 41.355C44.3439 42.013 45.3369 43.348 45.6719 44.855L54.5439 40.382C54.5549 40.376 54.5679 40.377 54.5799 40.372C54.5909 40.367 54.5979 40.357 54.6089 40.352C55.8049 39.853 56.8709 39.773 58.0649 40.278C59.2949 40.797 60.2459 41.781 60.7399 43.047C61.7369 45.599 60.7789 48.603 58.2969 49.64ZM58.8689 43.772C58.5719 43.013 58.2579 42.509 57.5299 42.201C56.8429 41.911 56.0859 41.909 55.3999 42.193L45.6679 47.1C45.6049 47.377 45.5299 47.653 45.4179 47.922C44.8969 49.178 43.9269 50.14 42.6859 50.632C42.1139 50.86 41.5159 50.973 40.9189 50.973C40.2769 50.973 39.6349 50.842 39.0269 50.58L24.8739 45.949C24.3479 45.777 24.0609 45.212 24.2339 44.686C24.4079 44.162 24.9749 43.878 25.5019 44.049L39.7009 48.695C39.7329 48.706 39.7649 48.718 39.7959 48.732C40.4839 49.036 41.2449 49.052 41.9419 48.776C42.6749 48.484 43.2509 47.909 43.5619 47.158C44.1979 45.628 43.5249 43.854 42.0619 43.191L27.0969 38.155C26.2529 38.046 18.1679 37.165 3.27193 41.391L5.54793 51.787C7.99193 51.245 13.8949 49.976 15.6809 49.976C17.1649 49.976 20.1899 51.036 24.9969 52.782C26.7599 53.423 28.5839 54.085 30.0909 54.576C34.1199 55.889 40.7719 55.992 42.1269 55.998L57.4349 47.836C59.0069 47.174 59.4739 45.324 58.8689 43.772ZM56.3209 31.999H22.1749C21.6199 31.999 20.9999 31.551 20.9999 31V10.999C20.9999 10.448 21.6199 9.99902 22.1749 9.99902H55.9999C56.5549 9.99902 56.9999 10.448 56.9999 10.999V31C56.9999 31.551 56.8759 31.999 56.3209 31.999ZM54.9999 11.999H22.9999V29.999H54.9999V11.999ZM39.5609 15.006C42.3289 15.006 44.0399 17.693 44.0399 20.998C44.0399 24.303 42.3289 26.991 39.5609 26.991C36.7919 26.991 34.9869 24.303 34.9869 20.998C34.9869 17.693 36.7919 15.006 39.5609 15.006ZM39.5609 24.991C41.2219 24.991 42.0319 23.2 42.0319 20.998C42.0319 18.797 41.2219 17.005 39.5609 17.005C37.8989 17.005 36.9959 18.797 36.9959 20.998C36.9959 23.2 37.8989 24.991 39.5609 24.991ZM52.3039 7.99902H18.9999V26.999C18.9999 27.552 18.7129 27.999 18.1579 27.999C17.6029 27.999 16.9999 27.552 16.9999 26.999V6.99902C16.9999 6.44702 17.6029 5.99902 18.1579 5.99902H52.3039C52.8589 5.99902 53.3079 6.44702 53.3079 6.99902C53.3079 7.55202 52.8589 7.99902 52.3039 7.99902Z" fill="#565B62"/>
</svg>
