<svg width="64" height="64" viewBox="0 0 64 64" fill="none" xmlns="http://www.w3.org/2000/svg">
<path fill-rule="evenodd" clip-rule="evenodd" d="M61 58H43C42.447 58 42 57.552 42 56.999V45C42 44.447 42.447 44 43 44H46V42C46 38.692 48.691 36 52 36C55.309 36 58 38.692 58 42V44H61C61.553 44 62 44.447 62 45V56.999C62 57.552 61.553 58 61 58ZM56 42C56 39.794 54.206 37.999 52 37.999C49.794 37.999 48 39.794 48 42V44H56V42ZM60 46H44V55.999H60V46ZM61 36C60.447 36 60 35.552 60 35V10.818C60 9.264 58.782 8 57.285 8H12.715C11.218 8 9.999 9.264 9.999 10.818V21H23C23.553 21 24 21.404 24 21.956V33.956C24 34.509 23.553 34.956 23 34.956H9.999V45.181C9.999 46.736 11.218 48 12.715 48H37C37.553 48 38 48.447 38 48.999C38 49.552 37.553 50 37 50H12.715C10.114 50 7.999 47.838 7.999 45.181V34.956H3C2.447 34.956 2 34.509 2 33.956V21.956C2 21.404 2.447 21 3 21H7.999V10.818C7.999 8.162 10.114 6 12.715 6H57.285C59.885 6 62 8.162 62 10.818V35C62 35.552 61.553 36 61 36ZM4 22.956V33H22V22.956H4ZM19 28.957H15C14.447 28.957 14 28.508 14 27.956C14 27.404 14.447 27 15 27H19C19.553 27 20 27.404 20 27.956C20 28.508 19.553 28.957 19 28.957Z" fill="#565B62"/>
</svg>
