<svg width="24" height="24" viewBox="0 0 24 24" fill="none" xmlns="http://www.w3.org/2000/svg">
<path fill-rule="evenodd" clip-rule="evenodd" d="M8.06804 6.43798C8.06804 4.53924 9.60728 3 11.506 3C13.4048 3 14.944 4.53923 14.944 6.43798C14.944 8.33673 13.4048 9.87596 11.506 9.87596C9.60728 9.87596 8.06804 8.33672 8.06804 6.43798ZM11.506 5C10.7118 5 10.068 5.6438 10.068 6.43798C10.068 7.23215 10.7118 7.87596 11.506 7.87596C12.3002 7.87596 12.944 7.23215 12.944 6.43798C12.944 5.64381 12.3002 5 11.506 5ZM8.34524 10.9992C10.4071 10.3806 12.605 10.3806 14.6669 10.9992L14.7669 11.0292L14.767 11.0292C15.7804 11.3333 16.5588 12.1486 16.8154 13.1751L16.8154 13.1751L17.9467 17.7003C18.1844 18.6509 17.7608 19.6435 16.91 20.1296L16.91 20.1296C13.5614 22.0431 9.45062 22.0431 6.10203 20.1296L6.10197 20.1296C5.25133 19.6434 4.82772 18.6509 5.06536 17.7003L5.06536 17.7003L6.19666 13.1751L7.16562 13.4173L6.19666 13.1751C6.45328 12.1486 7.23161 11.3332 8.24504 11.0292L8.24509 11.0292L8.34519 10.9992C8.34521 10.9992 8.34522 10.9992 8.34524 10.9992ZM14.0922 12.9148C12.4052 12.4087 10.6068 12.4087 8.91989 12.9148L8.91985 12.9148L8.81975 12.9449C8.48193 13.0462 8.22249 13.318 8.13694 13.6602L7.00565 18.1853C7.00565 18.1853 7.00565 18.1853 7.00565 18.1853C6.98533 18.2667 7.02154 18.3516 7.09438 18.3932C9.82808 19.9553 13.184 19.9553 15.9177 18.3932C15.9906 18.3515 16.0268 18.2667 16.0064 18.1853L14.8751 13.6602C14.8751 13.6602 14.8751 13.6602 14.8751 13.6602C14.7896 13.318 14.5301 13.0462 14.1923 12.9449L14.0922 12.9148L14.0922 12.9148Z" fill="#1F1F22"/>
</svg>
