<svg width="24" height="24" viewBox="0 0 24 24" fill="none" xmlns="http://www.w3.org/2000/svg">
<path fill-rule="evenodd" clip-rule="evenodd" d="M16 11.5C16 13.9853 13.9853 16 11.5 16C9.01472 16 7 13.9853 7 11.5C7 9.01472 9.01472 7 11.5 7C13.9853 7 16 9.01472 16 11.5ZM15.3279 16.7539C14.2541 17.5375 12.9311 18 11.5 18C7.91015 18 5 15.0899 5 11.5C5 7.91015 7.91015 5 11.5 5C15.0899 5 18 7.91015 18 11.5C18 12.9311 17.5375 14.2541 16.7539 15.3279L19.8166 18.3905L18.3905 19.8166L15.3279 16.7539Z" fill="#1F1F22"/>
</svg>
