<svg width="17" height="15" viewBox="0 0 17 15" fill="none" xmlns="http://www.w3.org/2000/svg">
<path d="M15.7852 6.31685C15.7366 6.29534 3.61619 1.13909 1.08735 0.0630387C0.572978 -0.155772 9.67643e-06 0.221883 9.67643e-06 0.78188V3.68502L3.08957e-05 6.3545C2.8342e-05 7.03135 -1.1513e-05 8.03125 8.72275e-06 9.03125L9.67643e-06 10.3777V13.2807C9.67643e-06 13.8402 0.57252 14.2185 1.0872 13.9995L15.7759 7.75011C16.4009 7.48446 16.4115 6.59334 15.7852 6.31685ZM9.67643e-06 8.38503V7.03135V5.67766V8.38503ZM1.56266 12.0993C1.56266 11.6644 1.56266 8.19155 1.56266 7.81252H11.6387L1.56266 12.0993ZM1.56266 6.25017C1.56266 5.87114 1.56266 2.40343 1.56266 1.96337L11.6387 6.25017H1.56266Z" fill="white"/>
</svg>
